<?xml version="1.0" standalone="no"?>
<!DOCTYPE svg PUBLIC "-//W3C//DTD SVG 20010904//EN"
 "http://www.w3.org/TR/2001/REC-SVG-20010904/DTD/svg10.dtd">
<svg version="1.0" xmlns="http://www.w3.org/2000/svg"
 width="900.000000pt" height="900.000000pt" viewBox="0 0 900.000000 900.000000"
 preserveAspectRatio="xMidYMid meet">
<metadata>
Created by potrace 1.14, written by Peter Selinger 2001-2017
</metadata>
<g transform="translate(0.000000,900.000000) scale(0.100000,-0.100000)"
fill="#000000" stroke="none">
<path d="M4388 7873 c-6 -16 -18 -44 -27 -63 -9 -19 -113 -134 -232 -255 -261
-266 -332 -361 -404 -540 -54 -135 -69 -220 -69 -400 0 -239 45 -435 152 -655
40 -83 46 -104 47 -164 1 -67 2 -70 37 -99 l36 -29 -38 -146 c-34 -129 -60
-213 -85 -274 -4 -10 -11 -18 -17 -18 -5 0 -7 3 -5 8 10 18 -14 379 -34 492
-70 409 -242 639 -491 658 -86 6 -102 1 -179 -51 -126 -87 -252 -132 -299
-107 -22 12 -60 -2 -60 -21 0 -20 66 -71 139 -107 68 -33 83 -37 155 -37 62 0
94 6 138 23 31 13 65 21 76 18 31 -10 105 -89 129 -138 24 -47 57 -186 51
-215 -6 -30 -46 50 -46 91 0 46 -23 82 -66 103 -44 21 -81 11 -122 -33 -18
-19 -42 -34 -53 -34 -11 0 -35 -13 -53 -29 -29 -26 -33 -36 -33 -79 0 -34 6
-56 18 -69 17 -19 16 -23 -14 -106 -17 -48 -36 -87 -40 -87 -14 0 -139 52
-139 57 0 3 5 23 11 44 10 32 18 40 53 51 43 14 86 64 86 102 0 12 -9 38 -20
58 -11 21 -17 44 -14 52 3 8 0 31 -6 51 -27 82 -148 101 -194 30 -8 -12 -32
-27 -54 -33 -77 -23 -107 -107 -61 -166 18 -23 19 -30 9 -61 -6 -19 -15 -37
-19 -39 -4 -3 -30 3 -57 13 -47 18 -49 21 -54 65 -13 102 -123 153 -210 97
-14 -9 -46 -16 -76 -16 -62 0 -100 -23 -127 -78 -32 -65 -11 -123 67 -185 9
-7 16 -26 16 -43 0 -19 11 -41 33 -65 28 -31 41 -37 85 -42 43 -4 58 -1 87 19
19 13 38 32 41 42 7 22 12 21 69 -3 29 -12 45 -25 42 -33 -3 -6 -20 -49 -38
-94 -24 -64 -37 -83 -51 -83 -41 0 -91 -43 -103 -88 -3 -13 3 -41 14 -66 10
-24 17 -55 14 -69 -8 -43 24 -94 71 -112 50 -19 87 -9 128 36 15 16 36 29 48
29 32 0 58 17 75 50 19 38 19 73 -2 113 -15 31 -15 35 13 116 16 46 35 86 42
88 17 7 133 -37 139 -53 5 -13 -81 -248 -100 -271 -5 -7 -18 -13 -29 -13 -11
0 -35 -15 -54 -34 -38 -38 -44 -82 -19 -126 8 -14 14 -42 15 -63 0 -75 42
-117 117 -117 28 0 43 8 69 35 20 22 42 35 57 35 14 0 39 13 56 29 26 24 31
37 31 73 0 24 -7 53 -15 64 -8 10 -15 25 -15 33 0 17 89 251 101 265 4 5 73
-17 153 -49 134 -53 147 -60 162 -92 29 -60 99 -128 166 -160 87 -43 152 -54
298 -54 117 1 190 -10 190 -28 0 -5 -24 -18 -52 -29 -29 -12 -98 -40 -153 -62
-370 -154 -358 -150 -476 -150 -180 0 -280 -45 -345 -155 -19 -33 -36 -47 -77
-63 -242 -96 -575 -235 -595 -249 -26 -19 -29 -20 -77 -46 -38 -20 -59 -75
-44 -114 25 -67 75 -86 142 -55 23 10 65 26 92 35 28 8 93 33 145 55 276 115
423 172 440 172 10 0 21 -8 24 -18 18 -56 207 -208 341 -274 179 -90 472 -158
740 -173 61 -4 115 -8 122 -10 7 -3 5 -17 -10 -45 -21 -45 -35 -151 -36 -282
-1 -92 3 -104 40 -123 37 -20 161 -20 199 0 38 20 44 52 35 209 -5 107 -11
141 -30 184 -17 37 -21 54 -12 56 7 2 77 9 157 15 217 16 375 46 545 103 81
27 250 110 311 153 61 43 182 162 190 187 3 10 13 18 23 18 9 0 141 -50 292
-111 213 -86 282 -109 309 -106 50 6 137 -29 153 -62 6 -14 29 -34 49 -44 67
-33 135 5 145 82 9 69 -53 130 -118 116 -43 -10 -127 23 -144 55 -7 14 -21 32
-31 41 -11 9 -145 67 -298 128 -154 62 -288 117 -298 122 -10 5 -24 24 -32 42
-20 48 -84 105 -146 129 -43 17 -85 23 -195 27 l-140 6 -270 109 c-334 134
-315 125 -284 142 17 9 68 13 179 13 167 0 232 11 318 55 71 36 121 85 156
151 l31 59 140 56 c77 32 184 75 238 98 94 39 206 104 276 160 l34 27 -9 -45
c-10 -56 -11 -129 0 -194 15 -96 162 -207 314 -237 163 -31 320 36 409 175 74
114 105 327 68 462 -32 117 -108 211 -221 276 -47 26 -59 39 -79 84 -13 30
-30 54 -37 54 -8 0 -29 -16 -48 -35 -32 -33 -38 -35 -99 -35 -35 0 -88 -8
-118 -17 -46 -14 -60 -15 -103 -4 -67 17 -84 4 -77 -54 5 -31 1 -48 -17 -75
-13 -19 -36 -57 -51 -85 -54 -94 -183 -200 -299 -244 -28 -11 -111 -45 -185
-75 -74 -31 -136 -56 -138 -56 -7 0 -2 283 7 386 5 61 19 140 30 175 23 76 81
156 131 183 l36 20 54 -25 c79 -35 201 -34 282 3 77 36 147 87 147 108 0 29
-24 42 -53 29 -49 -22 -197 31 -289 102 -79 63 -175 76 -284 39 -176 -61 -300
-235 -373 -526 -28 -111 -56 -386 -61 -588 -1 -48 -55 109 -100 292 -30 121
-31 142 -6 142 30 0 46 36 46 103 0 60 5 77 46 159 57 114 118 296 138 414 46
274 22 495 -75 703 -78 167 -158 267 -413 520 -169 167 -202 209 -230 294 -9
27 -45 21 -58 -10z m116 -175 c31 -37 56 -72 56 -77 0 -5 -11 -16 -24 -25 -13
-8 -39 -36 -57 -61 -18 -25 -36 -45 -41 -45 -4 0 -8 66 -8 147 0 84 4 143 9
138 4 -6 34 -40 65 -77z m-94 -68 c0 -77 -3 -140 -7 -140 -5 0 -21 17 -37 38
-16 20 -44 50 -62 65 l-33 28 62 74 c34 41 65 75 69 75 5 0 8 -63 8 -140z
m-120 -55 l24 -26 -69 -69 c-38 -39 -75 -70 -83 -70 -7 0 -25 12 -39 26 l-26
26 69 69 c38 38 76 69 84 69 9 0 27 -11 40 -25z m367 -32 c36 -31 67 -63 70
-70 7 -17 -36 -65 -53 -61 -14 3 -144 126 -144 136 0 10 43 52 53 52 5 0 39
-26 74 -57z m-294 -48 c10 -14 24 -42 31 -62 7 -20 17 -38 22 -40 5 -1 23 26
39 60 17 34 37 63 45 65 22 4 175 -142 263 -250 184 -227 258 -479 228 -775
-19 -185 -57 -323 -137 -494 l-47 -99 -171 2 c-169 3 -171 3 -174 26 -3 18
-10 22 -42 22 -32 0 -39 -4 -42 -22 -3 -23 -4 -23 -173 -23 l-170 0 -42 84
c-44 88 -91 226 -120 351 -14 58 -18 119 -18 270 0 176 2 203 24 280 56 195
140 330 318 508 67 67 128 122 135 122 7 0 21 -12 31 -25z m-248 -85 l28 -29
-49 -53 c-27 -29 -52 -54 -56 -56 -10 -5 -68 37 -68 48 0 11 99 120 109 120 4
0 20 -13 36 -30z m704 -24 c59 -59 60 -71 13 -105 l-30 -21 -55 63 -56 64 27
26 c15 15 31 27 37 27 6 0 35 -24 64 -54z m-828 -122 l28 -26 -36 -54 c-20
-30 -38 -54 -41 -54 -14 0 -72 43 -72 54 0 23 65 106 84 106 5 0 22 -12 37
-26z m944 -20 c19 -26 35 -52 35 -58 0 -14 -68 -58 -79 -52 -4 3 -21 27 -38
54 l-31 50 26 26 c15 14 32 26 39 26 7 0 28 -21 48 -46z m-1008 -148 c-3 -6
-13 -31 -22 -56 -10 -25 -22 -49 -26 -54 -9 -10 -99 24 -99 37 0 14 31 79 52
109 l19 28 40 -27 c22 -14 38 -31 36 -37z m1103 -6 c17 -33 30 -63 30 -68 0
-4 -17 -14 -37 -21 -21 -8 -43 -16 -49 -18 -10 -4 -64 95 -64 117 0 11 74 58
83 53 4 -2 21 -31 37 -63z m-1203 -120 c26 -11 41 -24 38 -32 -2 -7 -9 -33
-15 -57 l-11 -43 -50 4 c-28 3 -54 9 -60 15 -12 12 28 133 44 133 7 0 31 -9
54 -20z m1266 -27 c26 -73 23 -91 -17 -98 -53 -10 -79 -3 -86 25 -23 85 -24
79 22 100 24 11 48 20 54 20 5 0 18 -21 27 -47z m-1279 -130 c16 -4 18 -12 13
-54 -3 -27 -9 -54 -12 -59 -3 -6 -31 -10 -62 -10 l-56 0 6 59 c3 33 8 65 12
71 7 11 48 8 99 -7z m1315 -20 c6 -21 11 -53 11 -70 l0 -33 -60 0 -59 0 -6 38
c-3 20 -8 45 -10 54 -4 21 6 28 49 39 58 13 65 11 75 -28z m-1311 -179 c3 -50
2 -51 -29 -58 -17 -3 -44 -6 -60 -6 -28 0 -29 1 -29 53 0 30 3 57 7 61 4 4 30
6 58 4 l50 -3 3 -51z m1320 -6 l3 -58 -29 0 c-16 0 -44 3 -61 6 -30 6 -31 8
-31 61 l0 54 58 -3 57 -3 3 -57z m-1314 -120 c5 -25 6 -53 3 -61 -6 -17 -98
-40 -110 -28 -4 4 -9 34 -10 67 l-2 59 45 6 c63 8 64 8 74 -43z m1308 -23 c-1
-33 -6 -63 -11 -68 -4 -4 -31 -2 -59 4 -51 12 -52 13 -52 50 0 21 4 48 9 61 8
22 13 23 62 18 l54 -5 -3 -60z m-1285 -131 c7 -27 13 -54 13 -60 0 -16 -102
-47 -110 -33 -10 16 -33 120 -27 125 6 6 89 22 102 20 5 -1 15 -25 22 -52z
m1236 40 c37 -6 39 -8 33 -37 -16 -78 -28 -109 -41 -104 -7 3 -32 11 -55 18
-41 13 -42 13 -36 50 10 64 24 91 44 85 9 -3 34 -8 55 -12z m-1728 -53 c63
-29 84 -51 47 -51 -22 0 -106 -43 -190 -98 -84 -54 -152 -76 -211 -69 -64 9
-110 23 -151 48 l-34 21 74 22 c85 25 128 47 219 111 58 41 68 45 122 45 44 0
76 -7 124 -29z m2366 -17 c83 -59 143 -89 218 -110 34 -10 61 -21 61 -25 0 -9
-74 -44 -125 -58 -89 -25 -146 -8 -304 88 -56 34 -115 64 -131 68 -52 10 -36
29 50 61 30 12 80 21 111 21 50 1 61 -3 120 -45z m-2213 -91 c149 -181 215
-421 231 -841 3 -96 4 -175 0 -177 -3 -2 -66 20 -140 50 l-134 53 -6 234 c-7
246 -18 338 -49 419 -25 68 -94 156 -136 176 -19 9 -34 20 -34 25 0 14 15 9
61 -21 35 -24 73 -65 126 -140 2 -2 5 -2 8 1 8 8 -69 120 -108 158 -42 39 -35
60 12 35 37 -19 104 -85 129 -127 9 -15 20 -28 25 -28 15 0 -37 82 -87 137
-27 30 -46 56 -43 59 19 19 127 -65 168 -133 12 -19 24 -32 26 -29 8 8 -41 86
-86 137 -22 26 -37 49 -34 53 15 14 33 3 71 -41z m1882 34 c0 -7 -14 -26 -31
-43 -35 -33 -94 -132 -85 -141 3 -4 6 -1 6 5 0 19 118 139 150 152 38 16 52 5
24 -18 -30 -25 -89 -102 -108 -142 l-17 -35 28 35 c65 83 161 156 180 136 3
-3 -11 -23 -31 -43 -38 -38 -82 -97 -105 -140 -19 -37 -6 -26 39 32 40 51 121
116 144 114 6 0 0 -8 -14 -17 -153 -104 -197 -241 -203 -634 -2 -109 -5 -199
-8 -201 -10 -7 -255 -102 -263 -102 -5 0 -8 58 -7 135 4 287 51 548 128 712
58 122 173 252 173 195z m-1506 -54 c9 -26 16 -50 16 -55 0 -9 -74 -48 -93
-48 -12 0 -54 107 -45 115 5 6 81 32 95 34 6 0 18 -20 27 -46z m1147 31 c44
-15 50 -20 45 -38 -9 -38 -36 -96 -44 -96 -19 0 -92 36 -92 46 0 15 31 104 37
104 2 0 27 -7 54 -16z m-1093 -177 c12 -29 22 -56 22 -59 0 -8 -71 -58 -82
-58 -13 0 -67 116 -60 127 10 14 64 42 83 43 9 0 24 -20 37 -53z m1058 26 c13
-8 24 -20 24 -25 0 -18 -50 -118 -59 -118 -16 0 -80 44 -81 56 0 6 10 35 22
63 19 47 24 52 46 46 13 -3 35 -13 48 -22z m1570 -126 c14 -35 29 -49 76 -75
124 -69 212 -195 228 -328 19 -153 -30 -328 -118 -426 -126 -140 -328 -156
-508 -40 -108 70 -129 112 -129 252 1 96 37 169 104 211 114 73 283 56 337
-34 21 -37 24 -120 4 -158 -24 -46 -42 -59 -81 -59 -51 0 -81 37 -77 94 l3 41
-40 -4 c-22 -1 -48 -7 -57 -12 -24 -13 -42 -79 -34 -123 15 -81 179 -150 278
-117 78 26 139 123 156 246 28 208 -90 348 -293 350 -114 0 -146 -19 -207
-121 -90 -151 -221 -260 -409 -341 -288 -125 -663 -268 -677 -259 -15 9 -72
98 -72 111 0 13 18 22 285 130 398 161 479 197 546 241 84 56 142 120 209 234
45 76 50 89 44 124 -6 37 -5 39 17 32 59 -17 90 -17 135 -2 26 9 79 16 119 16
66 0 73 2 100 30 16 17 32 30 36 30 4 0 15 -19 25 -43z m-3642 -8 c27 -32 30
-42 16 -74 -5 -14 -2 -26 13 -43 46 -50 13 -135 -52 -135 -27 0 -31 -6 -57
-69 -15 -37 -25 -69 -23 -71 10 -7 189 -77 197 -77 5 0 15 19 23 43 7 23 26
73 40 112 l27 69 -24 23 c-51 47 -13 133 58 133 27 0 36 6 48 32 9 19 26 36
42 41 57 18 123 -47 99 -99 -9 -20 -7 -28 14 -50 14 -15 25 -37 25 -50 0 -33
-40 -74 -79 -82 -33 -7 -36 -12 -76 -120 -25 -65 -39 -115 -33 -118 5 -3 141
-59 301 -124 163 -66 293 -124 295 -131 3 -17 -47 -96 -65 -103 -7 -3 -67 15
-134 39 -66 25 -127 45 -136 45 -10 0 -86 28 -170 61 -85 34 -156 60 -158 58
-2 -3 -31 -76 -65 -163 -60 -158 -60 -159 -41 -180 28 -32 34 -61 17 -94 -17
-33 -34 -42 -77 -42 -16 0 -29 -4 -29 -9 0 -4 -11 -20 -25 -35 -32 -35 -83
-36 -115 -1 -19 20 -22 32 -17 65 4 33 1 46 -14 61 -43 43 -6 129 56 129 27 0
35 5 43 28 6 15 20 52 32 82 41 107 80 214 80 221 0 4 -45 25 -100 47 l-101
41 -10 -27 c-5 -15 -26 -68 -46 -119 l-36 -91 22 -28 c21 -27 26 -58 15 -89
-9 -23 -62 -48 -89 -41 -18 5 -24 1 -29 -19 -4 -16 -20 -32 -42 -42 -32 -16
-38 -16 -62 -2 -40 22 -59 62 -46 97 9 25 8 32 -13 56 -12 15 -23 36 -23 47 0
31 53 79 88 79 28 0 31 5 73 113 24 61 44 116 44 120 0 8 -140 67 -157 67 -5
0 -8 -8 -8 -18 0 -23 -47 -67 -79 -75 -31 -8 -84 15 -105 44 -9 13 -16 43 -16
66 0 31 -4 43 -14 43 -27 0 -75 50 -82 84 -8 45 18 92 62 113 29 14 40 15 69
4 31 -11 36 -10 55 9 72 72 180 28 180 -74 l0 -43 76 -32 c42 -18 78 -30 80
-28 2 2 15 30 28 63 l24 59 -24 26 c-33 35 -32 82 3 115 20 19 36 24 56 21 23
-3 30 1 38 21 23 60 91 71 133 21z m1066 -10 c7 -11 10 -23 7 -25 -3 -3 -29
-4 -58 -2 l-54 3 35 22 c44 28 56 28 70 2z m919 4 c17 -10 31 -21 31 -25 0 -5
-22 -8 -50 -8 -50 0 -55 4 -44 34 8 21 25 20 63 -1z m-469 -42 c0 -39 1 -40
38 -43 29 -2 37 -7 37 -23 0 -16 -8 -21 -37 -23 -37 -3 -38 -4 -38 -43 0 -32
-3 -39 -19 -39 -16 0 -20 8 -23 38 -3 34 -6 37 -38 42 -27 4 -35 10 -35 25 0
15 8 21 35 25 30 4 35 9 38 35 4 28 16 44 35 45 4 0 7 -18 7 -39z m-352 -32
c2 -11 -7 -18 -28 -22 -26 -6 -30 -11 -30 -41 0 -30 4 -35 27 -38 14 -2 28 -8
30 -14 5 -15 -37 -20 -117 -14 l-65 5 -3 64 c-2 45 1 67 10 73 7 4 49 7 93 6
64 -3 80 -6 83 -19z m204 -9 c-6 -51 5 -69 46 -72 29 -2 37 -7 37 -23 0 -17
-8 -21 -65 -25 -88 -7 -152 -1 -147 14 2 6 16 12 31 14 25 3 27 7 24 40 -2 31
-7 37 -26 38 -29 2 -36 9 -28 29 5 13 18 15 68 13 61 -3 63 -4 60 -28z m382
15 c4 -10 -5 -20 -29 -29 -37 -16 -38 -18 -29 -53 4 -16 14 -23 31 -23 18 0
24 -5 21 -17 -3 -14 -16 -17 -98 -15 -52 0 -99 1 -103 2 -5 0 -7 10 -5 23 2
18 10 23 41 25 36 3 37 4 37 46 0 23 3 46 7 49 3 4 32 7 64 7 41 0 58 -4 63
-15z m255 1 c7 -9 11 -38 9 -73 -3 -58 -3 -58 -38 -63 -62 -9 -150 0 -150 16
0 9 11 14 31 14 29 0 30 2 27 38 -3 32 -7 37 -30 40 -26 3 -36 20 -21 35 13
14 160 8 172 -7z m-787 -23 c2 -22 9 -29 31 -31 35 -4 31 -26 -6 -30 -19 -2
-27 -10 -29 -28 -4 -33 -22 -35 -26 -3 -2 21 -10 28 -33 33 -37 7 -38 24 -1
28 21 2 28 9 30 31 2 15 9 27 17 27 8 0 15 -12 17 -27z m590 0 c2 -22 9 -29
31 -31 35 -4 31 -26 -6 -30 -19 -2 -27 -10 -29 -29 -4 -38 -28 -42 -28 -4 0
25 -4 30 -27 33 -36 4 -41 26 -6 30 22 2 29 9 31 31 2 15 9 27 17 27 8 0 15
-12 17 -27z m1820 -140 c103 -58 149 -157 129 -279 -33 -208 -144 -282 -302
-201 -73 37 -89 63 -73 124 7 31 14 39 37 41 23 3 27 0 27 -23 0 -59 49 -105
110 -105 48 0 78 20 102 69 45 92 21 199 -55 249 -35 23 -53 27 -131 30 -64 3
-104 -1 -136 -12 -24 -8 -46 -14 -47 -12 -2 1 10 26 25 55 45 82 86 103 194
97 51 -2 79 -10 120 -33z m-3133 -195 c1 -86 -2 -159 -6 -161 -8 -4 -187 64
-198 75 -3 3 9 44 26 92 26 71 37 90 58 97 53 19 71 33 87 68 18 36 18 36 25
11 4 -14 7 -96 8 -182z m1446 178 c2 -6 15 -63 29 -126 51 -224 131 -438 190
-507 30 -35 77 -53 144 -53 50 0 53 -11 12 -40 -63 -45 -137 -63 -285 -67 -85
-3 -151 -1 -167 6 -81 31 -175 321 -224 685 -7 61 -14 111 -14 113 0 2 8 3 18
3 15 0 26 -25 57 -122 20 -68 42 -127 47 -133 7 -7 8 -3 5 10 -5 19 -28 138
-41 213 -5 31 -4 33 21 30 18 -2 29 -11 34 -28 39 -129 73 -230 76 -226 2 2
-6 58 -19 124 -12 67 -19 124 -15 128 18 18 36 -15 71 -130 22 -69 43 -126 48
-126 5 0 7 4 3 10 -10 16 -47 232 -41 245 6 16 46 8 51 -9z m-841 -23 c-11
-69 -35 -188 -41 -207 -3 -10 -1 -16 4 -13 5 3 27 63 48 132 31 100 42 125 57
125 10 0 18 -3 18 -7 -1 -13 -29 -166 -39 -208 -9 -36 -8 -55 3 -44 4 4 65
201 73 237 4 15 13 22 29 22 30 0 31 -15 4 -150 -12 -56 -19 -104 -16 -107 2
-2 23 54 45 126 29 90 46 131 56 131 21 0 19 -49 -10 -228 -52 -314 -134 -547
-201 -573 -45 -17 -263 -11 -335 9 -74 21 -163 68 -154 83 4 5 23 9 44 9 65 0
101 12 132 43 48 47 115 195 155 336 32 116 74 287 74 304 0 12 8 17 30 17 30
0 31 -1 24 -37z m491 -40 c15 -133 58 -352 90 -464 40 -137 38 -129 25 -129
-5 0 -24 22 -41 49 -45 68 -99 101 -166 101 -30 0 -66 -6 -81 -14 -35 -18 -85
-72 -106 -113 -29 -58 -56 -36 -31 24 29 68 75 265 95 408 11 77 23 152 26
168 l6 27 88 0 89 0 6 -57z m-37 -497 c109 -57 148 -211 86 -334 -37 -71 -80
-102 -143 -102 -64 0 -112 34 -146 104 -31 64 -37 159 -12 217 18 43 73 108
101 119 33 13 84 11 114 -4z m-909 -62 c88 -33 92 -49 10 -41 -60 5 -88 23
-89 55 0 16 -2 16 79 -14z m1781 17 c0 -5 -8 -18 -17 -30 -13 -16 -33 -24 -77
-28 -79 -8 -72 13 15 43 75 26 79 27 79 15z m-640 -132 c19 -34 36 -65 38 -69
2 -5 -21 -17 -50 -28 -29 -11 -60 -23 -69 -27 -15 -5 -16 4 -15 81 1 77 3 88
21 95 34 13 39 10 75 -52z m-507 42 c22 -9 24 -14 22 -76 -2 -86 -15 -96 -92
-70 -29 10 -52 22 -51 26 13 33 75 128 85 129 6 0 23 -4 36 -9z m37 -175 c0
-8 16 -38 35 -66 20 -29 34 -54 32 -56 -2 -2 -42 -19 -88 -38 -46 -19 -131
-53 -188 -76 l-105 -42 -167 4 c-152 3 -192 8 -177 23 5 6 185 82 258 110 19
8 112 45 205 84 94 38 176 70 183 70 6 1 12 -5 12 -13z m708 -126 c163 -66
301 -125 305 -129 15 -15 -109 -23 -254 -19 l-134 5 -150 61 c-82 34 -161 67
-173 72 l-24 10 29 34 c15 19 36 46 46 60 10 14 27 26 38 26 11 0 154 -54 317
-120z m-564 -28 c6 -10 -32 -47 -81 -81 -116 -79 -418 -119 -683 -90 -252 28
-372 12 -444 -56 -39 -37 -56 -43 -56 -22 0 21 62 74 115 99 46 21 61 23 200
20 398 -9 599 -6 666 11 105 26 173 55 215 92 39 35 58 42 68 27z m134 -23
c46 -41 117 -72 217 -95 65 -15 119 -19 295 -18 118 0 274 4 346 8 146 10 205
-1 280 -50 47 -31 85 -84 60 -84 -8 0 -31 15 -51 34 -66 63 -203 89 -345 67
-259 -41 -585 -15 -742 59 -55 25 -130 88 -122 101 9 16 25 10 62 -22z m-83
-130 c0 -112 -2 -134 -15 -134 -12 0 -15 22 -18 124 -3 132 0 155 21 148 9 -3
12 -39 12 -138z m-75 -45 c0 -80 -3 -101 -20 -124 -36 -50 -49 -106 -56 -243
-8 -164 -4 -184 41 -203 30 -12 35 -19 35 -49 l0 -35 -63 0 c-166 0 -443 44
-602 95 -110 36 -251 107 -327 165 -79 60 -142 124 -136 140 2 7 96 50 208 97
328 135 308 129 460 137 163 8 288 34 378 79 37 19 70 35 75 35 4 1 7 -41 7
-94z m186 64 c95 -50 286 -87 451 -88 50 0 85 -9 185 -49 97 -38 339 -136 416
-168 24 -10 11 -31 -55 -93 -107 -101 -223 -165 -398 -223 -157 -52 -432 -97
-597 -97 l-68 0 0 35 c0 30 5 37 34 49 46 19 52 53 39 227 -9 123 -12 141 -41
194 -30 54 -32 66 -32 153 0 51 3 92 8 90 4 -2 30 -15 58 -30z m1019 -86 c50
-19 97 -40 105 -46 22 -17 89 -46 105 -46 14 0 66 -20 425 -164 91 -37 173
-76 183 -87 26 -32 22 -83 -9 -108 -43 -33 -41 -34 -349 91 -88 36 -297 121
-465 188 -168 67 -318 128 -335 136 -16 7 -48 20 -70 30 -48 20 -46 21 121 38
155 15 174 13 289 -32z m-1890 20 c22 -4 36 -10 30 -14 -5 -3 -84 -36 -175
-73 -91 -37 -223 -91 -295 -120 -71 -29 -220 -90 -330 -135 -472 -193 -452
-186 -496 -151 -16 13 -23 29 -23 55 0 45 22 68 89 94 28 11 167 68 310 126
143 58 266 106 274 106 8 0 46 16 85 35 39 19 103 48 141 65 l70 31 140 -6
c77 -3 158 -9 180 -13z m772 -127 c24 -17 67 -120 59 -142 -4 -9 -29 -13 -92
-13 l-86 0 7 37 c11 62 54 133 79 133 6 0 21 -7 33 -15z m-1195 -218 c57 -56
120 -108 162 -132 73 -41 196 -98 250 -114 209 -63 365 -90 566 -99 132 -6
145 -9 148 -26 4 -18 -2 -19 -119 -13 -384 20 -700 108 -919 257 -89 61 -211
196 -193 214 10 9 7 12 105 -87z m2442 84 c8 -12 -51 -89 -110 -143 -205 -189
-549 -300 -1007 -325 -114 -6 -119 -5 -115 13 3 17 16 20 143 25 314 14 611
91 820 213 43 25 104 76 160 132 93 95 100 100 109 85z m-1231 -48 c-24 -2
-62 -2 -85 0 -24 2 -5 4 42 4 47 0 66 -2 43 -4z m-78 -128 c0 -62 -4 -90 -12
-92 -10 -4 -13 19 -13 92 0 73 3 96 13 93 8 -3 12 -31 12 -93z m45 0 c0 -57
-4 -95 -10 -95 -6 0 -10 38 -10 95 0 57 4 95 10 95 6 0 10 -38 10 -95z m50 -1
c0 -72 -3 -95 -12 -92 -9 3 -14 31 -16 83 -3 82 1 105 18 105 6 0 10 -37 10
-96z m-2110 -3 c0 -10 9 -30 20 -44 25 -32 25 -43 1 -50 -53 -13 -92 53 -55
94 22 24 34 24 34 0z m4108 -1 c27 -12 60 -18 93 -17 43 2 54 -2 70 -22 10
-13 19 -35 19 -50 0 -82 -107 -104 -145 -30 -10 18 -33 35 -70 50 -42 17 -54
27 -49 38 3 9 9 24 11 34 7 22 18 21 71 -3z m-2043 -133 c3 -12 5 -56 3 -97
-2 -59 -6 -75 -18 -75 -12 0 -16 17 -18 84 -2 46 -1 90 2 98 8 20 25 15 31
-10z m12 -212 c23 -16 67 -120 59 -141 -3 -8 -30 -11 -88 -10 l-83 1 3 33 c4
56 50 130 82 132 3 0 15 -7 27 -15z m31 -182 c-16 -2 -40 -2 -55 0 -16 2 -3 4
27 4 30 0 43 -2 28 -4z m-93 -128 c0 -62 -4 -89 -12 -92 -10 -4 -13 19 -13 92
0 73 3 96 13 93 8 -3 12 -31 12 -93z m45 0 c0 -57 -4 -95 -10 -95 -6 0 -10 38
-10 95 0 57 4 95 10 95 6 0 10 -38 10 -95z m48 3 c-2 -54 -7 -93 -13 -93 -6 0
-11 39 -13 93 -2 78 0 92 13 92 13 0 15 -14 13 -92z"/>
<path d="M4358 7104 c-62 -51 -144 -140 -194 -210 -49 -68 -104 -174 -104
-199 0 -27 66 -145 123 -220 56 -73 211 -215 236 -215 30 0 199 157 251 233
14 20 28 37 32 37 3 0 18 -14 33 -31 24 -29 28 -31 50 -19 13 7 35 25 49 39
l25 26 -46 48 c-40 42 -44 51 -39 80 7 39 -33 130 -98 221 -57 79 -229 246
-255 246 -10 0 -39 -16 -63 -36z m171 -81 c99 -99 156 -174 206 -272 l27 -55
-22 -45 c-43 -90 -114 -183 -207 -271 -54 -52 -102 -90 -114 -90 -12 0 -60 38
-116 93 -93 89 -169 190 -206 273 l-19 41 35 69 c19 38 56 97 81 131 48 63
210 223 227 223 5 0 53 -44 108 -97z m270 -442 l30 -38 -22 -22 c-30 -27 -38
-27 -67 4 -23 24 -23 26 -7 60 9 19 21 35 26 35 5 0 23 -17 40 -39z"/>
<path d="M4340 6875 l0 -75 -75 0 -75 0 0 -75 0 -74 73 -3 72 -3 5 -75 5 -75
75 0 75 0 5 75 5 75 73 3 73 3 -3 72 -3 72 -72 3 -72 3 -3 72 -3 72 -77 3 -78
3 0 -76z m132 -17 l3 -73 75 -5 75 -5 3 -52 3 -52 -78 -3 -78 -3 -3 -70 c-2
-38 -7 -72 -13 -75 -5 -4 -28 -4 -52 -1 l-42 6 -1 50 c-1 103 5 95 -80 95
l-75 0 3 53 3 52 75 5 c84 6 77 -4 79 103 l1 47 50 0 49 0 3 -72z"/>
<path d="M4111 6281 c-68 -19 -90 -141 -39 -218 49 -75 120 -81 165 -14 66 98
-22 261 -126 232z m62 -60 c29 -11 67 -69 67 -102 0 -13 -9 -39 -20 -56 -16
-27 -26 -33 -53 -33 -82 0 -125 115 -66 178 22 24 36 27 72 13z"/>
<path d="M4660 6273 c-53 -27 -82 -85 -77 -157 3 -51 8 -63 35 -87 37 -34 66
-36 105 -10 36 23 52 47 66 96 14 50 5 105 -23 138 -28 35 -63 41 -106 20z
m81 -69 c37 -39 34 -104 -7 -145 -20 -19 -42 -31 -58 -31 -81 0 -101 125 -28
182 34 27 64 25 93 -6z"/>
<path d="M5048 2577 c-69 -43 -79 -56 -54 -76 10 -9 28 -3 77 25 35 19 68 39
72 44 9 8 -9 51 -21 49 -4 0 -37 -19 -74 -42z"/>
<path d="M5001 2458 c-119 -14 -208 -76 -255 -177 -16 -36 -20 -67 -21 -141 0
-82 4 -103 26 -150 33 -69 79 -115 149 -149 47 -22 69 -26 145 -26 76 0 99 4
145 26 77 36 111 68 145 136 27 53 30 67 30 158 0 109 -16 159 -69 223 -63 73
-181 114 -295 100z m149 -84 c51 -22 85 -58 115 -126 55 -122 20 -260 -84
-333 -40 -28 -49 -30 -134 -30 -84 0 -96 2 -133 28 -75 51 -114 125 -114 218
0 104 51 198 130 240 59 31 150 32 220 3z"/>
<path d="M5661 2440 c-29 -11 -60 -25 -70 -32 -46 -35 -75 -68 -99 -113 -24
-45 -27 -61 -27 -155 0 -120 16 -168 79 -238 57 -63 121 -86 242 -87 92 0 105
2 159 30 61 31 119 94 131 141 8 30 5 34 -39 44 -33 7 -36 5 -48 -23 -34 -82
-105 -127 -201 -127 -161 0 -249 108 -236 288 11 146 92 225 233 226 91 0 139
-22 174 -81 25 -42 27 -44 66 -38 21 3 41 8 44 11 10 10 -35 77 -73 110 -22
19 -63 41 -90 49 -69 21 -179 19 -245 -5z"/>
<path d="M6740 2438 c-106 -54 -121 -201 -27 -272 19 -14 70 -37 114 -50 104
-31 136 -49 151 -81 49 -108 -79 -193 -205 -136 -42 19 -64 49 -77 104 -6 24
-10 26 -34 21 -15 -4 -28 -8 -30 -9 -10 -8 14 -81 39 -118 39 -59 91 -82 184
-82 61 0 77 4 113 28 51 33 82 91 82 152 0 95 -47 150 -155 180 -103 29 -145
47 -165 73 -23 28 -25 50 -8 87 17 37 57 55 122 55 64 0 103 -26 121 -81 10
-30 16 -34 41 -31 16 2 30 5 31 6 6 5 -19 74 -37 104 -43 69 -172 94 -260 50z"/>
<path d="M7410 2438 c-106 -54 -121 -201 -27 -272 19 -15 77 -40 128 -56 101
-32 119 -43 137 -77 43 -81 -35 -161 -145 -150 -73 8 -116 41 -133 102 -9 33
-17 44 -27 41 -8 -4 -22 -6 -30 -6 -19 0 -10 -56 18 -112 51 -100 223 -128
326 -52 65 49 82 175 33 244 -24 34 -99 74 -160 85 -55 10 -123 48 -139 76
-18 33 -8 73 26 105 22 20 36 24 89 24 73 0 110 -23 129 -81 10 -30 16 -34 41
-31 16 2 30 5 31 6 6 5 -19 74 -37 104 -43 69 -172 94 -260 50z"/>
<path d="M1521 2413 c-13 -38 -108 -289 -182 -480 -21 -56 -39 -105 -39 -108
0 -3 18 -5 39 -5 l39 0 31 86 c17 47 31 89 31 95 0 5 6 9 13 9 110 4 262 -1
265 -7 2 -4 18 -46 35 -93 l32 -85 43 -3 c27 -2 42 1 42 9 0 6 -17 53 -39 103
-21 50 -55 134 -76 186 -20 52 -41 104 -46 115 -5 11 -26 63 -46 115 l-38 95
-46 3 c-44 3 -45 2 -58 -35z m114 -180 c28 -75 52 -140 53 -145 2 -4 -44 -8
-102 -8 -83 0 -106 3 -106 14 0 7 17 60 38 117 22 57 42 116 46 132 3 15 10
27 14 27 4 0 30 -62 57 -137z"/>
<path d="M1952 2138 l3 -313 32 -3 33 -3 2 283 3 283 106 0 c154 0 191 -27
192 -145 1 -100 -47 -148 -152 -151 -28 -1 -51 -6 -51 -11 0 -12 182 -250 196
-255 7 -2 27 -3 44 -1 l33 3 -72 94 c-39 52 -71 97 -71 101 0 4 13 13 29 20
69 28 111 105 111 202 -1 97 -43 171 -113 197 -16 6 -96 11 -178 11 l-149 0 2
-312z"/>
<path d="M2653 2430 c-63 -25 -122 -81 -154 -146 -21 -43 -24 -63 -24 -159 0
-103 2 -113 30 -163 35 -64 71 -96 145 -131 72 -33 201 -35 270 -5 43 19 46
19 80 3 19 -10 52 -20 73 -24 l37 -7 0 36 c0 31 -3 36 -23 36 -13 0 -31 6 -41
13 -18 13 -17 16 12 56 38 52 56 133 50 221 -9 116 -67 208 -162 258 -71 36
-216 42 -293 12z m227 -61 c62 -28 88 -54 121 -124 31 -64 38 -139 19 -204
-11 -38 -50 -101 -64 -101 -4 0 -34 22 -65 49 -88 76 -111 85 -236 91 l-110 5
2 64 c2 46 10 76 29 112 34 62 60 85 120 109 64 25 128 25 184 -1z m-110 -374
c14 -8 48 -34 75 -58 l50 -45 -28 -11 c-47 -18 -136 -13 -184 10 -46 22 -118
98 -106 110 23 21 149 17 193 -6z"/>
<path d="M3164 2435 c-4 -8 -4 -115 -2 -238 3 -202 6 -226 25 -267 12 -25 28
-52 35 -61 39 -47 156 -71 238 -49 59 16 113 72 129 133 6 28 11 135 11 272
l0 226 -32 -3 -33 -3 -5 -240 c-6 -270 -9 -283 -78 -312 -46 -19 -124 -13
-160 14 -53 39 -57 59 -60 311 l-3 232 -30 0 c-17 0 -32 -6 -35 -15z"/>
<path d="M3740 2135 l0 -315 35 0 35 0 0 315 0 315 -35 0 -35 0 0 -315z"/>
<path d="M3940 2134 l0 -316 163 4 c148 4 166 6 212 29 56 28 107 93 127 162
18 64 15 203 -7 266 -24 74 -93 143 -157 159 -26 7 -112 12 -192 12 l-146 0 0
-316z m333 230 c92 -45 131 -199 87 -347 -15 -52 -62 -101 -108 -115 -22 -7
-83 -12 -136 -12 l-96 0 0 245 0 245 111 0 c80 0 120 -4 142 -16z"/>
<path d="M4558 2312 c-2 -76 -2 -218 0 -315 l5 -177 28 0 29 0 0 315 0 315
-29 0 -28 0 -5 -138z"/>
<path d="M6170 2135 l0 -315 210 0 210 0 0 35 0 35 -175 0 -176 0 3 112 3 111
150 1 150 1 3 33 3 32 -155 0 -156 0 0 100 0 100 165 0 165 0 0 35 0 35 -200
0 -200 0 0 -315z"/>
<path d="M7160 2135 l0 -315 35 0 35 0 0 315 0 315 -35 0 -35 0 0 -315z"/>
<path d="M4028 1669 c-68 -41 -76 -52 -59 -78 7 -11 22 -7 77 24 38 21 71 39
73 41 6 5 -9 54 -17 54 -4 0 -37 -19 -74 -41z"/>
<path d="M3896 1534 c-68 -21 -157 -110 -179 -179 -26 -81 -31 -144 -14 -208
41 -157 149 -240 312 -241 110 0 175 24 240 89 66 66 90 131 89 242 0 71 -5
90 -33 147 -35 71 -95 124 -171 151 -54 19 -180 18 -244 -1z m203 -60 c70 -20
123 -75 150 -156 25 -74 26 -107 5 -177 -30 -102 -120 -170 -224 -171 -77 0
-125 16 -170 56 -58 53 -83 113 -83 198 0 127 60 218 166 252 57 17 93 17 156
-2z"/>
<path d="M6054 1539 c-95 -27 -184 -125 -204 -226 -35 -168 37 -323 178 -385
54 -24 181 -29 248 -10 143 41 225 176 211 346 -15 178 -139 287 -325 285 -42
0 -91 -5 -108 -10z m199 -69 c98 -37 150 -122 150 -247 0 -141 -82 -240 -208
-251 -74 -6 -114 3 -168 39 -88 58 -122 191 -82 325 36 122 176 183 308 134z"/>
<path d="M3125 1531 c-90 -24 -165 -82 -200 -157 -72 -151 -19 -365 107 -437
133 -76 333 -55 424 45 35 39 70 105 60 115 -2 3 -22 7 -43 9 -37 5 -39 3 -68
-47 -40 -71 -93 -99 -184 -99 -153 1 -234 88 -235 255 -2 138 57 225 173 255
96 25 192 -8 240 -83 25 -39 42 -44 86 -27 l26 10 -22 40 c-24 43 -61 75 -119
105 -39 20 -193 30 -245 16z"/>
<path d="M4550 1224 l0 -315 33 3 32 3 5 280 5 280 86 3 c150 5 209 -35 209
-142 0 -97 -55 -156 -148 -161 -26 -2 -48 -7 -49 -11 -1 -5 40 -64 90 -131 90
-120 93 -123 131 -123 48 0 47 3 -38 113 l-66 85 43 28 c78 49 115 131 102
228 -9 72 -38 121 -88 151 -42 24 -51 25 -195 25 l-152 0 0 -316z"/>
<path d="M5182 1228 l3 -313 160 1 c146 1 164 3 208 24 53 25 85 62 119 136
29 65 32 236 4 299 -28 66 -64 110 -109 136 -39 22 -53 24 -215 27 l-172 4 2
-314z m355 214 c97 -69 111 -305 23 -406 -37 -42 -89 -56 -209 -56 l-91 0 0
243 c0 134 2 246 4 248 2 2 58 2 123 -1 102 -4 122 -8 150 -28z"/>
<path d="M7280 1348 c-40 -106 -92 -244 -116 -305 -24 -62 -44 -117 -44 -123
0 -5 17 -10 38 -10 l37 0 35 98 35 97 134 0 133 0 37 -95 36 -95 44 -3 c38 -3
42 -1 37 16 -4 10 -60 151 -125 313 l-120 294 -44 3 -44 3 -73 -193z m150 37
c0 -6 16 -50 35 -99 19 -49 35 -95 35 -103 0 -10 -24 -13 -105 -13 -58 0 -105
2 -105 5 0 3 17 51 39 108 21 57 42 119 46 138 4 19 10 38 13 44 6 9 41 -59
42 -80z"/>
<path d="M1350 1214 l0 -316 158 4 c171 5 212 15 265 66 56 52 87 142 87 247
0 127 -37 220 -108 269 -58 40 -93 46 -254 46 l-148 0 0 -316z m352 214 c58
-44 73 -87 73 -208 0 -93 -3 -111 -25 -155 -39 -75 -71 -89 -212 -94 l-118 -3
0 247 0 247 123 -4 c116 -3 126 -5 159 -30z"/>
<path d="M2030 1215 l0 -315 208 2 207 3 0 30 0 30 -172 3 -173 2 0 110 0 110
155 0 155 0 0 35 0 35 -155 0 -156 0 3 101 3 101 160 1 160 2 3 33 3 32 -200
0 -201 0 0 -315z"/>
<path d="M6640 1214 l0 -316 148 4 c123 3 155 7 187 24 101 51 115 221 24 284
-19 13 -36 25 -38 27 -3 2 5 10 17 19 54 37 69 139 31 201 -37 60 -79 73 -234
73 l-135 0 0 -316z m296 221 c21 -21 25 -33 22 -77 -3 -42 -8 -54 -31 -72 -24
-18 -43 -21 -120 -21 l-92 0 -3 98 -3 97 101 0 c94 0 103 -2 126 -25z m-2
-255 c60 -22 72 -128 22 -179 -25 -24 -34 -26 -136 -29 l-110 -4 0 109 c0 61
3 113 7 116 9 9 187 -1 217 -13z"/>
</g>
</svg>
